<svg xmlns="http://www.w3.org/2000/svg" xmlns:xlink="http://www.w3.org/1999/xlink" contentStyleType="text/css" data-diagram-type="SEQUENCE" height="484px" preserveAspectRatio="none" style="width:933px;height:484px;background:#FFFFFF;" version="1.1" viewBox="0 0 933 484" width="933px" zoomAndPan="magnify"><defs/><g><g><title>Utilisateur</title><rect fill="#000000" fill-opacity="0.00000" height="321.1953" width="8" x="45.0049" y="82.2969"/><line style="stroke:#000000;stroke-width:1;" x1="49" x2="49" y1="82.2969" y2="403.4922"/></g><g><title>Frontend React</title><rect fill="#000000" fill-opacity="0.00000" height="321.1953" width="8" x="308.7622" y="82.2969"/><line style="stroke:#000000;stroke-width:1;" x1="311.9292" x2="311.9292" y1="82.2969" y2="403.4922"/></g><g><title>Backend Laravel</title><rect fill="#000000" fill-opacity="0.00000" height="321.1953" width="8" x="637.3101" y="82.2969"/><line style="stroke:#000000;stroke-width:1;" x1="641.1533" x2="641.1533" y1="82.2969" y2="403.4922"/></g><g><title>Base de donn&#233;es</title><rect fill="#000000" fill-opacity="0.00000" height="321.1953" width="8" x="856.0498" y="82.2969"/><line style="stroke:#000000;stroke-width:1;" x1="859.9448" x2="859.9448" y1="82.2969" y2="403.4922"/></g><g class="participant participant-head" data-participant="User"><text fill="#000000" font-family="Verdana" font-size="14" lengthAdjust="spacing" textLength="72.0098" x="10" y="78.9951">Utilisateur</text><ellipse cx="49.0049" cy="14" fill="#FFFFFF" rx="8" ry="8" style="stroke:#000000;stroke-width:1;"/><path d="M49.0049,22 L49.0049,49 M36.0049,30 L62.0049,30 M49.0049,49 L36.0049,64 M49.0049,49 L62.0049,64" fill="none" style="stroke:#000000;stroke-width:1;"/></g><g class="participant participant-tail" data-participant="User"><text fill="#000000" font-family="Verdana" font-size="14" lengthAdjust="spacing" textLength="72.0098" x="10" y="415.4873">Utilisateur</text><ellipse cx="49.0049" cy="427.7891" fill="#FFFFFF" rx="8" ry="8" style="stroke:#000000;stroke-width:1;"/><path d="M49.0049,435.7891 L49.0049,462.7891 M36.0049,443.7891 L62.0049,443.7891 M49.0049,462.7891 L36.0049,477.7891 M49.0049,462.7891 L62.0049,477.7891" fill="none" style="stroke:#000000;stroke-width:1;"/></g><g class="participant participant-head" data-participant="Frontend"><rect fill="#FFFFFF" height="30.2969" rx="2.5" ry="2.5" style="stroke:#000000;stroke-width:1;" width="121.666" x="251.9292" y="51"/><text fill="#000000" font-family="Verdana" font-size="14" lengthAdjust="spacing" textLength="107.666" x="258.9292" y="70.9951">Frontend React</text></g><g class="participant participant-tail" data-participant="Frontend"><rect fill="#FFFFFF" height="30.2969" rx="2.5" ry="2.5" style="stroke:#000000;stroke-width:1;" width="121.666" x="251.9292" y="402.4922"/><text fill="#000000" font-family="Verdana" font-size="14" lengthAdjust="spacing" textLength="107.666" x="258.9292" y="422.4873">Frontend React</text></g><g class="participant participant-head" data-participant="Backend"><rect fill="#FFFFFF" height="30.2969" rx="2.5" ry="2.5" style="stroke:#000000;stroke-width:1;" width="130.3135" x="576.1533" y="51"/><text fill="#000000" font-family="Verdana" font-size="14" lengthAdjust="spacing" textLength="116.3135" x="583.1533" y="70.9951">Backend Laravel</text></g><g class="participant participant-tail" data-participant="Backend"><rect fill="#FFFFFF" height="30.2969" rx="2.5" ry="2.5" style="stroke:#000000;stroke-width:1;" width="130.3135" x="576.1533" y="402.4922"/><text fill="#000000" font-family="Verdana" font-size="14" lengthAdjust="spacing" textLength="116.3135" x="583.1533" y="422.4873">Backend Laravel</text></g><g class="participant participant-head" data-participant="DB"><rect fill="#FFFFFF" height="30.2969" rx="2.5" ry="2.5" style="stroke:#000000;stroke-width:1;" width="134.21" x="792.9448" y="51"/><text fill="#000000" font-family="Verdana" font-size="14" lengthAdjust="spacing" textLength="120.21" x="799.9448" y="70.9951">Base de donn&#233;es</text></g><g class="participant participant-tail" data-participant="DB"><rect fill="#FFFFFF" height="30.2969" rx="2.5" ry="2.5" style="stroke:#000000;stroke-width:1;" width="134.21" x="792.9448" y="402.4922"/><text fill="#000000" font-family="Verdana" font-size="14" lengthAdjust="spacing" textLength="120.21" x="799.9448" y="422.4873">Base de donn&#233;es</text></g><g class="message" data-participant-1="User" data-participant-2="Frontend"><polygon fill="#000000" points="300.7622,109.4297,310.7622,113.4297,300.7622,117.4297,304.7622,113.4297" style="stroke:#000000;stroke-width:1;"/><line style="stroke:#000000;stroke-width:1;" x1="49.0049" x2="306.7622" y1="113.4297" y2="113.4297"/><text fill="#000000" font-family="Verdana" font-size="13" lengthAdjust="spacing" textLength="219.7813" x="56.0049" y="108.3638">Remplit formulaire cr&#233;ation t&#226;che</text></g><g class="message" data-participant-1="Frontend" data-participant-2="Backend"><polygon fill="#000000" points="629.3101,138.5625,639.3101,142.5625,629.3101,146.5625,633.3101,142.5625" style="stroke:#000000;stroke-width:1;"/><line style="stroke:#000000;stroke-width:1;" x1="312.7622" x2="635.3101" y1="142.5625" y2="142.5625"/><text fill="#000000" font-family="Verdana" font-size="13" lengthAdjust="spacing" textLength="304.5479" x="319.7622" y="137.4966">POST /api/tasks (avec token et donn&#233;es t&#226;che)</text></g><g class="message" data-participant-1="Backend" data-participant-2="Backend"><line style="stroke:#000000;stroke-width:1;" x1="641.3101" x2="683.3101" y1="171.6953" y2="171.6953"/><line style="stroke:#000000;stroke-width:1;" x1="683.3101" x2="683.3101" y1="171.6953" y2="184.6953"/><line style="stroke:#000000;stroke-width:1;" x1="642.3101" x2="683.3101" y1="184.6953" y2="184.6953"/><polygon fill="#000000" points="652.3101,180.6953,642.3101,184.6953,652.3101,188.6953,648.3101,184.6953" style="stroke:#000000;stroke-width:1;"/><text fill="#000000" font-family="Verdana" font-size="13" lengthAdjust="spacing" textLength="151.9438" x="648.3101" y="166.6294">Validation des donn&#233;es</text></g><g class="message" data-participant-1="Backend" data-participant-2="DB"><polygon fill="#000000" points="848.0498,209.8281,858.0498,213.8281,848.0498,217.8281,852.0498,213.8281" style="stroke:#000000;stroke-width:1;"/><line style="stroke:#000000;stroke-width:1;" x1="641.3101" x2="854.0498" y1="213.8281" y2="213.8281"/><text fill="#000000" font-family="Verdana" font-size="13" lengthAdjust="spacing" textLength="157.1489" x="648.3101" y="208.7622">Insertion nouvelle t&#226;che</text></g><g class="message" data-participant-1="DB" data-participant-2="Backend"><polygon fill="#000000" points="652.3101,238.9609,642.3101,242.9609,652.3101,246.9609,648.3101,242.9609" style="stroke:#000000;stroke-width:1;"/><line style="stroke:#000000;stroke-width:1;stroke-dasharray:2.0,2.0;" x1="646.3101" x2="859.0498" y1="242.9609" y2="242.9609"/><text fill="#000000" font-family="Verdana" font-size="13" lengthAdjust="spacing" textLength="194.7397" x="658.3101" y="237.895">Confirmation cr&#233;ation avec ID</text></g><g class="message" data-participant-1="Backend" data-participant-2="Backend"><line style="stroke:#000000;stroke-width:1;" x1="641.3101" x2="683.3101" y1="272.0938" y2="272.0938"/><line style="stroke:#000000;stroke-width:1;" x1="683.3101" x2="683.3101" y1="272.0938" y2="285.0938"/><line style="stroke:#000000;stroke-width:1;" x1="642.3101" x2="683.3101" y1="285.0938" y2="285.0938"/><polygon fill="#000000" points="652.3101,281.0938,642.3101,285.0938,652.3101,289.0938,648.3101,285.0938" style="stroke:#000000;stroke-width:1;"/><text fill="#000000" font-family="Verdana" font-size="13" lengthAdjust="spacing" textLength="165.3882" x="648.3101" y="267.0278">G&#233;n&#233;ration r&#233;ponse JSON</text></g><g class="message" data-participant-1="Backend" data-participant-2="Frontend"><polygon fill="#000000" points="323.7622,310.2266,313.7622,314.2266,323.7622,318.2266,319.7622,314.2266" style="stroke:#000000;stroke-width:1;"/><line style="stroke:#000000;stroke-width:1;stroke-dasharray:2.0,2.0;" x1="317.7622" x2="640.3101" y1="314.2266" y2="314.2266"/><text fill="#000000" font-family="Verdana" font-size="13" lengthAdjust="spacing" textLength="278.6494" x="329.7622" y="309.1606">R&#233;ponse succ&#232;s (201) avec donn&#233;es t&#226;che</text></g><g class="message" data-participant-1="Frontend" data-participant-2="Frontend"><line style="stroke:#000000;stroke-width:1;" x1="312.7622" x2="354.7622" y1="343.3594" y2="343.3594"/><line style="stroke:#000000;stroke-width:1;" x1="354.7622" x2="354.7622" y1="343.3594" y2="356.3594"/><line style="stroke:#000000;stroke-width:1;" x1="313.7622" x2="354.7622" y1="356.3594" y2="356.3594"/><polygon fill="#000000" points="323.7622,352.3594,313.7622,356.3594,323.7622,360.3594,319.7622,356.3594" style="stroke:#000000;stroke-width:1;"/><text fill="#000000" font-family="Verdana" font-size="13" lengthAdjust="spacing" textLength="196.2314" x="319.7622" y="338.2935">Mise &#224; jour state/local storage</text></g><g class="message" data-participant-1="Frontend" data-participant-2="User"><polygon fill="#000000" points="60.0049,381.4922,50.0049,385.4922,60.0049,389.4922,56.0049,385.4922" style="stroke:#000000;stroke-width:1;"/><line style="stroke:#000000;stroke-width:1;stroke-dasharray:2.0,2.0;" x1="54.0049" x2="311.7622" y1="385.4922" y2="385.4922"/><text fill="#000000" font-family="Verdana" font-size="13" lengthAdjust="spacing" textLength="239.7573" x="66.0049" y="380.4263">Affichage confirmation et redirection</text></g><!--SRC=[RP91JiCm44NtESNG5LrK1PPP814YK15GH2dxaJEXfeuTsHFEWrZHS-HYJ9AcIIkaB1px_Vb_nZxZ3HK4fK5jemWLEmzhraO7PAeyO81r81-Lw5ahNQ9bcDnvPvbi1gyaYaa3zLl7O89gst2FwF6BJ4lkzqx1G939vwojTnHQCasYg367sVMXVYoUHMaqG-vyKKbiJw1ylKFMpWBNFsf3qI6WAFT-CRmiLsymnrBF6SCsmBb4Ki1EJe7uOBslCOtwyECQxsXqrbbbWlQQCPicCIoin6ufwofft52VB4rWDYvuwsokVT6L7FfeeotIVpFSrpinzHqeYjA96poibiy3VZondWcLKlMlT7vrSJdjF4wwFfhSKE59Yxh-XaydJoAmF8svSGgDh9t7Zx5CTCsTnN2Jvrfjv13Kk4UPjATCRaqrlty0]--></g></svg>