<svg xmlns="http://www.w3.org/2000/svg" xmlns:xlink="http://www.w3.org/1999/xlink" contentStyleType="text/css" data-diagram-type="CLASS" height="306px" preserveAspectRatio="none" style="width:790px;height:306px;background:#FFFFFF;" version="1.1" viewBox="0 0 790 306" width="790px" zoomAndPan="magnify"><defs/><g><!--class User--><g class="entity" data-entity="User" data-source-line="1" data-uid="ent0002" id="entity_User"><rect fill="#F1F1F1" height="227.2656" rx="2.5" ry="2.5" style="stroke:#181818;stroke-width:0.5;" width="305.8223" x="477.5" y="39.5"/><ellipse cx="610.2061" cy="55.5" fill="#ADD1B2" rx="11" ry="11" style="stroke:#181818;stroke-width:1;"/><path d="M613.1748,61.1406 Q612.5967,61.4375 611.9561,61.5781 Q611.3154,61.7344 610.6123,61.7344 Q608.1123,61.7344 606.7842,60.0938 Q605.4717,58.4375 605.4717,55.3125 Q605.4717,52.1875 606.7842,50.5313 Q608.1123,48.875 610.6123,48.875 Q611.3154,48.875 611.9561,49.0313 Q612.6123,49.1875 613.1748,49.4844 L613.1748,52.2031 Q612.5498,51.625 611.9561,51.3594 Q611.3623,51.0781 610.7373,51.0781 Q609.3936,51.0781 608.7061,52.1563 Q608.0186,53.2188 608.0186,55.3125 Q608.0186,57.4063 608.7061,58.4844 Q609.3936,59.5469 610.7373,59.5469 Q611.3623,59.5469 611.9561,59.2813 Q612.5498,59 613.1748,58.4219 L613.1748,61.1406 Z " fill="#000000"/><text fill="#000000" font-family="sans-serif" font-size="14" lengthAdjust="spacing" textLength="31.9102" x="630.7061" y="60.3467">User</text><line style="stroke:#181818;stroke-width:0.5;" x1="478.5" x2="782.3223" y1="71.5" y2="71.5"/><rect fill="none" height="6" style="stroke:#C82930;stroke-width:1;" width="6" x="485.5" y="82.1484"/><text fill="#000000" font-family="sans-serif" font-size="14" lengthAdjust="spacing" textLength="44.6455" x="497.5" y="88.4951">id : int</text><rect fill="none" height="6" style="stroke:#C82930;stroke-width:1;" width="6" x="485.5" y="98.4453"/><text fill="#000000" font-family="sans-serif" font-size="14" lengthAdjust="spacing" textLength="93.5088" x="497.5" y="104.792">name : string</text><rect fill="none" height="6" style="stroke:#C82930;stroke-width:1;" width="6" x="485.5" y="114.7422"/><text fill="#000000" font-family="sans-serif" font-size="14" lengthAdjust="spacing" textLength="92.415" x="497.5" y="121.0889">email : string</text><rect fill="none" height="6" style="stroke:#C82930;stroke-width:1;" width="6" x="485.5" y="131.0391"/><text fill="#000000" font-family="sans-serif" font-size="14" lengthAdjust="spacing" textLength="120.5176" x="497.5" y="137.3857">password : string</text><rect fill="none" height="6" style="stroke:#C82930;stroke-width:1;" width="6" x="485.5" y="147.3359"/><text fill="#000000" font-family="sans-serif" font-size="14" lengthAdjust="spacing" textLength="217.1914" x="497.5" y="153.6826">role : string  // "admin" | "user"</text><rect fill="none" height="6" style="stroke:#C82930;stroke-width:1;" width="6" x="485.5" y="163.6328"/><text fill="#000000" font-family="sans-serif" font-size="14" lengthAdjust="spacing" textLength="151.5186" x="497.5" y="169.9795">created_at : datetime</text><rect fill="none" height="6" style="stroke:#C82930;stroke-width:1;" width="6" x="485.5" y="179.9297"/><text fill="#000000" font-family="sans-serif" font-size="14" lengthAdjust="spacing" textLength="156.0986" x="497.5" y="186.2764">updated_at : datetime</text><line style="stroke:#181818;stroke-width:1;" x1="478.5" x2="782.3223" y1="193.5781" y2="193.5781"/><ellipse cx="488.5" cy="207.2266" fill="#84BE84" rx="3" ry="3" style="stroke:#038048;stroke-width:1;"/><text fill="#000000" font-family="sans-serif" font-size="14" lengthAdjust="spacing" textLength="65.2217" x="497.5" y="210.5732">register()</text><ellipse cx="488.5" cy="223.5234" fill="#84BE84" rx="3" ry="3" style="stroke:#038048;stroke-width:1;"/><text fill="#000000" font-family="sans-serif" font-size="14" lengthAdjust="spacing" textLength="45.0283" x="497.5" y="226.8701">login()</text><ellipse cx="488.5" cy="239.8203" fill="#84BE84" rx="3" ry="3" style="stroke:#038048;stroke-width:1;"/><text fill="#000000" font-family="sans-serif" font-size="14" lengthAdjust="spacing" textLength="55.1934" x="497.5" y="243.167">logout()</text><ellipse cx="488.5" cy="256.1172" fill="#84BE84" rx="3" ry="3" style="stroke:#038048;stroke-width:1;"/><text fill="#000000" font-family="sans-serif" font-size="14" lengthAdjust="spacing" textLength="279.8223" x="497.5" y="259.4639">getTasks()  // Pour r&#233;cup&#233;rer ses t&#226;ches</text></g><!--class Task--><g class="entity" data-entity="Task" data-source-line="16" data-uid="ent0003" id="entity_Task"><rect fill="#F1F1F1" height="292.4531" rx="2.5" ry="2.5" style="stroke:#181818;stroke-width:0.5;" width="358.7393" x="7" y="7"/><ellipse cx="165.8535" cy="23" fill="#ADD1B2" rx="11" ry="11" style="stroke:#181818;stroke-width:1;"/><path d="M168.8223,28.6406 Q168.2441,28.9375 167.6035,29.0781 Q166.9629,29.2344 166.2598,29.2344 Q163.7598,29.2344 162.4316,27.5938 Q161.1191,25.9375 161.1191,22.8125 Q161.1191,19.6875 162.4316,18.0313 Q163.7598,16.375 166.2598,16.375 Q166.9629,16.375 167.6035,16.5313 Q168.2598,16.6875 168.8223,16.9844 L168.8223,19.7031 Q168.1973,19.125 167.6035,18.8594 Q167.0098,18.5781 166.3848,18.5781 Q165.041,18.5781 164.3535,19.6563 Q163.666,20.7188 163.666,22.8125 Q163.666,24.9063 164.3535,25.9844 Q165.041,27.0469 166.3848,27.0469 Q167.0098,27.0469 167.6035,26.7813 Q168.1973,26.5 168.8223,25.9219 L168.8223,28.6406 Z " fill="#000000"/><text fill="#000000" font-family="sans-serif" font-size="14" lengthAdjust="spacing" textLength="32.5322" x="186.3535" y="27.8467">Task</text><line style="stroke:#181818;stroke-width:0.5;" x1="8" x2="364.7393" y1="39" y2="39"/><rect fill="none" height="6" style="stroke:#C82930;stroke-width:1;" width="6" x="15" y="49.6484"/><text fill="#000000" font-family="sans-serif" font-size="14" lengthAdjust="spacing" textLength="44.6455" x="27" y="55.9951">id : int</text><rect fill="none" height="6" style="stroke:#C82930;stroke-width:1;" width="6" x="15" y="65.9453"/><text fill="#000000" font-family="sans-serif" font-size="14" lengthAdjust="spacing" textLength="81.1768" x="27" y="72.292">title : string</text><rect fill="none" height="6" style="stroke:#C82930;stroke-width:1;" width="6" x="15" y="82.2422"/><text fill="#000000" font-family="sans-serif" font-size="14" lengthAdjust="spacing" textLength="119.335" x="27" y="88.5889">description : text</text><rect fill="none" height="6" style="stroke:#C82930;stroke-width:1;" width="6" x="15" y="98.5391"/><text fill="#000000" font-family="sans-serif" font-size="14" lengthAdjust="spacing" textLength="332.7393" x="27" y="104.8857">status : string  // "todo" | "in_progress" | "done"</text><rect fill="none" height="6" style="stroke:#C82930;stroke-width:1;" width="6" x="15" y="114.8359"/><text fill="#000000" font-family="sans-serif" font-size="14" lengthAdjust="spacing" textLength="304.9443" x="27" y="121.1826">priority : string  // "low" | "medium" | "high"</text><rect fill="none" height="6" style="stroke:#C82930;stroke-width:1;" width="6" x="15" y="131.1328"/><text fill="#000000" font-family="sans-serif" font-size="14" lengthAdjust="spacing" textLength="282.748" x="27" y="137.4795">due_date : datetime  // Date d'&#233;ch&#233;ance</text><rect fill="#F24D5C" height="6" style="stroke:#C82930;stroke-width:1;" width="6" x="15" y="147.4297"/><text fill="#000000" font-family="sans-serif" font-size="14" lengthAdjust="spacing" textLength="142.2832" x="27" y="153.7764">created_by : int (FK)</text><rect fill="#F24D5C" height="6" style="stroke:#C82930;stroke-width:1;" width="6" x="15" y="163.7266"/><text fill="#000000" font-family="sans-serif" font-size="14" lengthAdjust="spacing" textLength="147.8477" x="27" y="170.0732">assigned_to : int (FK)</text><rect fill="none" height="6" style="stroke:#C82930;stroke-width:1;" width="6" x="15" y="180.0234"/><text fill="#000000" font-family="sans-serif" font-size="14" lengthAdjust="spacing" textLength="151.5186" x="27" y="186.3701">created_at : datetime</text><rect fill="none" height="6" style="stroke:#C82930;stroke-width:1;" width="6" x="15" y="196.3203"/><text fill="#000000" font-family="sans-serif" font-size="14" lengthAdjust="spacing" textLength="156.0986" x="27" y="202.667">updated_at : datetime</text><line style="stroke:#181818;stroke-width:1;" x1="8" x2="364.7393" y1="209.9688" y2="209.9688"/><ellipse cx="18" cy="223.6172" fill="#84BE84" rx="3" ry="3" style="stroke:#038048;stroke-width:1;"/><text fill="#000000" font-family="sans-serif" font-size="14" lengthAdjust="spacing" textLength="55.6719" x="27" y="226.9639">create()</text><ellipse cx="18" cy="239.9141" fill="#84BE84" rx="3" ry="3" style="stroke:#038048;stroke-width:1;"/><text fill="#000000" font-family="sans-serif" font-size="14" lengthAdjust="spacing" textLength="60.252" x="27" y="243.2607">update()</text><ellipse cx="18" cy="256.2109" fill="#84BE84" rx="3" ry="3" style="stroke:#038048;stroke-width:1;"/><text fill="#000000" font-family="sans-serif" font-size="14" lengthAdjust="spacing" textLength="55.0293" x="27" y="259.5576">delete()</text><ellipse cx="18" cy="272.5078" fill="#84BE84" rx="3" ry="3" style="stroke:#038048;stroke-width:1;"/><text fill="#000000" font-family="sans-serif" font-size="14" lengthAdjust="spacing" textLength="180.6055" x="27" y="275.8545">changeStatus(newStatus)</text><ellipse cx="18" cy="288.8047" fill="#84BE84" rx="3" ry="3" style="stroke:#038048;stroke-width:1;"/><text fill="#000000" font-family="sans-serif" font-size="14" lengthAdjust="spacing" textLength="103.3936" x="27" y="292.1514">assignTo(user)</text></g><!--link User to Task--><g class="link" data-entity-1="User" data-entity-2="Task" data-source-line="36" data-uid="lnk4" id="link_User_Task"><path codeLine="36" d="M477.2,170.94 C466.91,171.76 456.68,172.46 446.75,173 C420.73,174.41 393.27,174.18 366.33,172.97" fill="none" id="User-Task" style="stroke:#181818;stroke-width:1;"/><text fill="#000000" font-family="sans-serif" font-size="13" lengthAdjust="spacing" textLength="48.3247" x="397.75" y="169.0669">creates</text><text fill="#000000" font-family="sans-serif" font-size="13" lengthAdjust="spacing" textLength="8.271" x="461.1008" y="168.5418">1</text><text fill="#000000" font-family="sans-serif" font-size="13" lengthAdjust="spacing" textLength="6.5" x="373.4867" y="170.5177">*</text></g><!--link Task to User--><g class="link" data-entity-1="Task" data-entity-2="User" data-source-line="37" data-uid="lnk6" id="link_Task_User"><path codeLine="37" d="M366.13,153 C403.05,153 441.6,153 477.47,153" fill="none" id="Task-User" style="stroke:#181818;stroke-width:1;"/><text fill="#000000" font-family="sans-serif" font-size="13" lengthAdjust="spacing" textLength="75.0483" x="384.25" y="146.0669">assigned to</text><text fill="#000000" font-family="sans-serif" font-size="13" lengthAdjust="spacing" textLength="6.5" x="373.8508" y="149.7437">*</text><text fill="#000000" font-family="sans-serif" font-size="13" lengthAdjust="spacing" textLength="8.271" x="461.3847" y="149.6768">1</text></g><!--SRC=[dLAnJiCm4Dtp5QSiJK1HnTePiR0WA7DbuYCvuTYMVL6fW9zXwtVant3iG9ke4qjqxzuxn_UUQoMyXsUF3ZuoW0f8mWP8SmHQT1YWPqUwYHti1AbvouOJziR9UTSPTHe5MAyX5x8ZdSCdv7tuNnvbjKF1A7U2WrY6agd3oFHMNcQgyBa6XmrvHbUK4IhJa3xLfkS9DCXRuTzyKSPBF9ZUWHkETM-7emjRU_J0mtVTei- -igoEVemJb_nWOhKmHAAl7LacemF1-9wKdWNtVc406sdY_gHtrfd6eVSHIwCn-M4T6KTyM4mgiu_23YNrNInRQjeq8tlSZGQT-HIdRiUUN8Lbs-4eT8qpnryEQJ4exkxBo8JDgT61OhEa_XrJ6fooIDe9I5Ju1-fMw0QVecc5ndsg4fUkjJN5-6hACQGLFA8Ie-KUh0essp5H2b5cyINdDpbKBlZ35UHNUOfpCztbNAFmTIxvjG3O_000]--></g></svg>