<svg xmlns="http://www.w3.org/2000/svg" xmlns:xlink="http://www.w3.org/1999/xlink" contentStyleType="text/css" data-diagram-type="DESCRIPTION" height="603px" preserveAspectRatio="none" style="width:600px;height:603px;background:#FFFFFF;" version="1.1" viewBox="0 0 600 603" width="600px" zoomAndPan="magnify"><defs/><g><!--cluster Syst?me TaskFlow--><g class="cluster" data-entity="Syst&#232;me TaskFlow" data-source-line="6" data-uid="ent0003" id="cluster_Syst&#232;me TaskFlow"><path d="M127.5,6 L274.7412,6 A3.75,3.75 0 0 1 277.2412,8.5 L284.2412,28.2969 L330.5,28.2969 A2.5,2.5 0 0 1 333,30.7969 L333,593.5 A2.5,2.5 0 0 1 330.5,596 L127.5,596 A2.5,2.5 0 0 1 125,593.5 L125,8.5 A2.5,2.5 0 0 1 127.5,6" fill="none" style="stroke:#000000;stroke-width:1.5;"/><line style="stroke:#000000;stroke-width:1.5;" x1="125" x2="284.2412" y1="28.2969" y2="28.2969"/><text fill="#000000" font-family="sans-serif" font-size="14" font-weight="bold" lengthAdjust="spacing" textLength="146.2412" x="129" y="20.9951">Syst&#232;me TaskFlow</text></g><!--cluster Authentification--><g class="cluster" data-entity="Authentification" data-source-line="18" data-uid="ent0012" id="cluster_Authentification"><path d="M432.5,256 L561.626,256 A3.75,3.75 0 0 1 564.126,258.5 L571.126,278.2969 L590.5,278.2969 A2.5,2.5 0 0 1 593,280.7969 L593,336.5 A2.5,2.5 0 0 1 590.5,339 L432.5,339 A2.5,2.5 0 0 1 430,336.5 L430,258.5 A2.5,2.5 0 0 1 432.5,256" fill="none" style="stroke:#000000;stroke-width:1.5;"/><line style="stroke:#000000;stroke-width:1.5;" x1="430" x2="571.126" y1="278.2969" y2="278.2969"/><text fill="#000000" font-family="sans-serif" font-size="14" font-weight="bold" lengthAdjust="spacing" textLength="128.126" x="434" y="270.9951">Authentification</text></g><!--entity register--><g class="entity" data-entity="register" data-source-line="7" data-uid="ent0004" id="entity_register"><ellipse cx="229.2207" cy="58.8441" fill="#F1F1F1" rx="74.7207" ry="17.3441" style="stroke:#181818;stroke-width:0.5;"/><text fill="#000000" font-family="sans-serif" font-size="14" lengthAdjust="spacing" textLength="118.0498" x="170.1958" y="63.4926">Cr&#233;er un compte</text></g><!--entity view_tasks--><g class="entity" data-entity="view_tasks" data-source-line="8" data-uid="ent0005" id="entity_view_tasks"><ellipse cx="229.0681" cy="128.9136" fill="#F1F1F1" rx="72.5681" ry="16.9136" style="stroke:#181818;stroke-width:0.5;"/><text fill="#000000" font-family="sans-serif" font-size="14" lengthAdjust="spacing" textLength="112.7793" x="172.6784" y="133.5621">Voir mes t&#226;ches</text></g><!--entity create_task--><g class="entity" data-entity="create_task" data-source-line="9" data-uid="ent0006" id="entity_create_task"><ellipse cx="229.1679" cy="197.9336" fill="#F1F1F1" rx="72.6679" ry="16.9336" style="stroke:#181818;stroke-width:0.5;"/><text fill="#000000" font-family="sans-serif" font-size="14" lengthAdjust="spacing" textLength="113.0254" x="172.6552" y="202.582">Cr&#233;er une t&#226;che</text></g><!--entity edit_task--><g class="entity" data-entity="edit_task" data-source-line="10" data-uid="ent0007" id="entity_edit_task"><ellipse cx="229.1884" cy="268.9377" fill="#F1F1F1" rx="80.1884" ry="18.4377" style="stroke:#181818;stroke-width:0.5;"/><text fill="#000000" font-family="sans-serif" font-size="14" lengthAdjust="spacing" textLength="131.1201" x="163.6283" y="273.5861">Modifier une t&#226;che</text></g><!--entity delete_task--><g class="entity" data-entity="delete_task" data-source-line="11" data-uid="ent0008" id="entity_delete_task"><ellipse cx="228.8418" cy="342.8684" fill="#F1F1F1" rx="87.3418" ry="19.8684" style="stroke:#181818;stroke-width:0.5;"/><text fill="#000000" font-family="sans-serif" font-size="14" lengthAdjust="spacing" textLength="147.6973" x="154.9932" y="347.5168">Supprimer une t&#226;che</text></g><!--entity change_status--><g class="entity" data-entity="change_status" data-source-line="12" data-uid="ent0009" id="entity_change_status"><ellipse cx="228.7911" cy="417.9582" fill="#F1F1F1" rx="87.7911" ry="19.9582" style="stroke:#181818;stroke-width:0.5;"/><text fill="#000000" font-family="sans-serif" font-size="14" lengthAdjust="spacing" textLength="148.7227" x="154.4298" y="422.6067">Changer statut t&#226;che</text></g><!--entity assign_task--><g class="entity" data-entity="assign_task" data-source-line="13" data-uid="ent0010" id="entity_assign_task"><ellipse cx="229.1326" cy="491.9265" fill="#F1F1F1" rx="82.6326" ry="18.9265" style="stroke:#181818;stroke-width:0.5;"/><text fill="#000000" font-family="sans-serif" font-size="14" lengthAdjust="spacing" textLength="136.8418" x="160.7117" y="496.575">Attribuer une t&#226;che</text></g><!--entity logout--><g class="entity" data-entity="logout" data-source-line="14" data-uid="ent0011" id="entity_logout"><ellipse cx="228.7971" cy="563.1594" fill="#F1F1F1" rx="71.2971" ry="16.6594" style="stroke:#181818;stroke-width:0.5;"/><text fill="#000000" font-family="sans-serif" font-size="14" lengthAdjust="spacing" textLength="109.6279" x="173.9832" y="567.8079">Se d&#233;connecter</text></g><!--entity auth--><g class="entity" data-entity="auth" data-source-line="19" data-uid="ent0013" id="entity_auth"><ellipse cx="511.4286" cy="306.9857" fill="#F1F1F1" rx="65.4286" ry="15.4857" style="stroke:#181818;stroke-width:0.5;"/><text fill="#000000" font-family="sans-serif" font-size="14" lengthAdjust="spacing" textLength="94.6025" x="464.1274" y="311.6342">S'authentifier</text></g><!--entity User--><g class="entity" data-entity="User" data-source-line="3" data-uid="ent0002" id="entity_User"><ellipse cx="42.0049" cy="285.5" fill="#F1F1F1" rx="8" ry="8" style="stroke:#181818;stroke-width:0.5;"/><path d="M42.0049,293.5 L42.0049,320.5 M29.0049,301.5 L55.0049,301.5 M42.0049,320.5 L29.0049,335.5 M42.0049,320.5 L55.0049,335.5" fill="none" style="stroke:#181818;stroke-width:0.5;"/><text fill="#000000" font-family="sans-serif" font-size="14" lengthAdjust="spacing" textLength="72.0098" x="6" y="349.9951">Utilisateur</text></g><!--link User to register--><g class="link" data-entity-1="User" data-entity-2="register" data-source-line="23" data-uid="lnk14" id="link_User_register"><path d="M45.46,276.69 C50.64,227.71 66.78,143.34 117,94 C129.97,81.25 141.7895,74.8622 159.1195,69.7022" fill="none" id="User-to-register" style="stroke:#181818;stroke-width:1;"/><polygon fill="#181818" points="164.87,67.99,155.1028,66.7246,160.0779,69.4168,157.3857,74.392,164.87,67.99" style="stroke:#181818;stroke-width:1;"/></g><!--link User to view_tasks--><g class="link" data-entity-1="User" data-entity-2="view_tasks" data-source-line="24" data-uid="lnk15" id="link_User_view_tasks"><path d="M52.22,276.83 C62.46,242.37 82.31,192.66 117,163 C131.17,150.88 143.8165,144.7129 161.5665,139.6929" fill="none" id="User-to-view_tasks" style="stroke:#181818;stroke-width:1;"/><polygon fill="#181818" points="167.34,138.06,157.5911,136.6603,162.5287,139.4207,159.7683,144.3583,167.34,138.06" style="stroke:#181818;stroke-width:1;"/></g><!--link User to create_task--><g class="link" data-entity-1="User" data-entity-2="create_task" data-source-line="25" data-uid="lnk16" id="link_User_create_task"><path d="M70.09,276.95 C82.8,261.45 99.09,244.5 117,233 C134,222.08 148.8894,215.9931 167.7494,210.6231" fill="none" id="User-to-create_task" style="stroke:#181818;stroke-width:1;"/><polygon fill="#181818" points="173.52,208.98,163.7687,207.5975,168.7111,210.3492,165.9594,215.2917,173.52,208.98" style="stroke:#181818;stroke-width:1;"/></g><!--link User to edit_task--><g class="link" data-entity-1="User" data-entity-2="edit_task" data-source-line="26" data-uid="lnk17" id="link_User_edit_task"><path d="M78.23,306.24 C105.28,299.51 137.2772,291.5572 168.1372,283.8872" fill="none" id="User-to-edit_task" style="stroke:#181818;stroke-width:1;"/><polygon fill="#181818" points="173.96,282.44,164.2609,280.7289,169.1076,283.646,166.1905,288.4927,173.96,282.44" style="stroke:#181818;stroke-width:1;"/></g><!--link User to delete_task--><g class="link" data-entity-1="User" data-entity-2="delete_task" data-source-line="27" data-uid="lnk18" id="link_User_delete_task"><path d="M78.23,320.33 C100.04,323.63 122.9078,327.0908 149.4278,331.1108" fill="none" id="User-to-delete_task" style="stroke:#181818;stroke-width:1;"/><polygon fill="#181818" points="155.36,332.01,147.0611,326.7063,150.4165,331.2606,145.8622,334.616,155.36,332.01" style="stroke:#181818;stroke-width:1;"/></g><!--link User to change_status--><g class="link" data-entity-1="User" data-entity-2="change_status" data-source-line="28" data-uid="lnk19" id="link_User_change_status"><path d="M78.06,350.8 C89.71,361.27 103.24,372.03 117,380 C133.48,389.55 147.0312,395.3128 164.8212,401.1728" fill="none" id="User-to-change_status" style="stroke:#181818;stroke-width:1;"/><polygon fill="#181818" points="170.52,403.05,163.2233,396.435,165.771,401.4857,160.7204,404.0334,170.52,403.05" style="stroke:#181818;stroke-width:1;"/></g><!--link User to assign_task--><g class="link" data-entity-1="User" data-entity-2="assign_task" data-source-line="29" data-uid="lnk20" id="link_User_assign_task"><path d="M54.26,353.1 C65.41,384.56 85.44,428.25 117,455 C130.56,466.49 142.1165,472.5872 158.9565,478.0872" fill="none" id="User-to-assign_task" style="stroke:#181818;stroke-width:1;"/><polygon fill="#181818" points="164.66,479.95,157.3466,473.3535,159.9071,478.3977,154.8629,480.9582,164.66,479.95" style="stroke:#181818;stroke-width:1;"/></g><!--link User to logout--><g class="link" data-entity-1="User" data-entity-2="logout" data-source-line="30" data-uid="lnk21" id="link_User_logout"><path d="M46.02,353.18 C51.8,400.59 68.56,480.95 117,528 C130.62,541.23 143.4375,547.8335 161.4975,552.9535" fill="none" id="User-to-logout" style="stroke:#181818;stroke-width:1;"/><polygon fill="#181818" points="167.27,554.59,159.7022,548.2869,162.4596,553.2262,157.5202,555.9836,167.27,554.59" style="stroke:#181818;stroke-width:1;"/></g><!--link register to auth--><g class="link" data-entity-1="register" data-entity-2="auth" data-source-line="33" data-uid="lnk22" id="link_register_auth"><path d="M282.02,71.44 C322.85,83.66 378.53,106.11 414,144 C457.6,190.58 488.1589,254.6627 501.5489,285.6327" fill="none" id="register-to-auth" style="stroke:#181818;stroke-width:1;stroke-dasharray:7.0,7.0;"/><polygon fill="#181818" points="503.93,291.14,504.0299,281.2916,501.9457,286.5506,496.6868,284.4665,503.93,291.14" style="stroke:#181818;stroke-width:1;"/><text fill="#000000" font-family="sans-serif" font-size="13" lengthAdjust="spacing" textLength="63.0068" x="350" y="96.0669">&#171;include&#187;</text></g><!--link view_tasks to auth--><g class="link" data-entity-1="view_tasks" data-entity-2="auth" data-source-line="34" data-uid="lnk23" id="link_view_tasks_auth"><path d="M280.31,141.14 C299.73,146.66 321.85,154 341,163 C409.14,195.03 467.8904,257.2859 493.8904,287.2859" fill="none" id="view_tasks-to-auth" style="stroke:#181818;stroke-width:1;stroke-dasharray:7.0,7.0;"/><polygon fill="#181818" points="497.82,291.82,494.9484,282.3991,494.5453,288.0416,488.9029,287.6385,497.82,291.82" style="stroke:#181818;stroke-width:1;"/><text fill="#000000" font-family="sans-serif" font-size="13" lengthAdjust="spacing" textLength="63.0068" x="350" y="165.0669">&#171;include&#187;</text></g><!--link create_task to auth--><g class="link" data-entity-1="create_task" data-entity-2="auth" data-source-line="35" data-uid="lnk24" id="link_create_task_auth"><path d="M274.96,211.3 C312.66,222.95 367.62,241.09 414,261 C437.36,271.03 457.9778,280.8483 477.0978,290.2683" fill="none" id="create_task-to-auth" style="stroke:#181818;stroke-width:1;stroke-dasharray:7.0,7.0;"/><polygon fill="#181818" points="482.48,292.92,476.1745,285.3543,477.9948,290.7102,472.6388,292.5306,482.48,292.92" style="stroke:#181818;stroke-width:1;"/><text fill="#000000" font-family="sans-serif" font-size="13" lengthAdjust="spacing" textLength="63.0068" x="350" y="232.0669">&#171;include&#187;</text></g><!--link edit_task to auth--><g class="link" data-entity-1="edit_task" data-entity-2="auth" data-source-line="36" data-uid="lnk25" id="link_edit_task_auth"><path d="M298.62,278.3 C346.46,284.78 403.5644,292.514 448.4144,298.594" fill="none" id="edit_task-to-auth" style="stroke:#181818;stroke-width:1;stroke-dasharray:7.0,7.0;"/><polygon fill="#181818" points="454.36,299.4,445.9789,294.2272,449.4053,298.7283,444.9042,302.1547,454.36,299.4" style="stroke:#181818;stroke-width:1;"/><text fill="#000000" font-family="sans-serif" font-size="13" lengthAdjust="spacing" textLength="63.0068" x="350" y="282.0669">&#171;include&#187;</text></g><!--link delete_task to auth--><g class="link" data-entity-1="delete_task" data-entity-2="auth" data-source-line="37" data-uid="lnk26" id="link_delete_task_auth"><path d="M316.54,342.75 C347.45,341.62 382.43,339.12 414,334 C433.75,330.8 449.4911,326.7706 467.1611,321.3806" fill="none" id="delete_task-to-auth" style="stroke:#181818;stroke-width:1;stroke-dasharray:7.0,7.0;"/><polygon fill="#181818" points="472.9,319.63,463.1245,318.4299,468.1175,321.0888,465.4586,326.0818,472.9,319.63" style="stroke:#181818;stroke-width:1;"/><text fill="#000000" font-family="sans-serif" font-size="13" lengthAdjust="spacing" textLength="63.0068" x="350" y="330.0669">&#171;include&#187;</text></g><!--link change_status to auth--><g class="link" data-entity-1="change_status" data-entity-2="auth" data-source-line="38" data-uid="lnk27" id="link_change_status_auth"><path d="M294.08,404.45 C330.14,395.71 375.52,382.82 414,366 C441.71,353.89 466.0682,338.4172 485.0182,325.2872" fill="none" id="change_status-to-auth" style="stroke:#181818;stroke-width:1;stroke-dasharray:7.0,7.0;"/><polygon fill="#181818" points="489.95,321.87,480.2741,323.7078,485.8401,324.7176,484.8303,330.2836,489.95,321.87" style="stroke:#181818;stroke-width:1;"/><text fill="#000000" font-family="sans-serif" font-size="13" lengthAdjust="spacing" textLength="63.0068" x="350" y="362.0669">&#171;include&#187;</text></g><!--link assign_task to auth--><g class="link" data-entity-1="assign_task" data-entity-2="auth" data-source-line="39" data-uid="lnk28" id="link_assign_task_auth"><path d="M284.48,477.86 C323.47,465.79 375.64,445.48 414,415 C449.44,386.84 479.1738,349.7077 495.8238,327.2777" fill="none" id="assign_task-to-auth" style="stroke:#181818;stroke-width:1;stroke-dasharray:7.0,7.0;"/><polygon fill="#181818" points="499.4,322.46,490.8238,327.3024,496.4198,326.4748,497.2475,332.0708,499.4,322.46" style="stroke:#181818;stroke-width:1;"/><text fill="#000000" font-family="sans-serif" font-size="13" lengthAdjust="spacing" textLength="63.0068" x="350" y="411.0669">&#171;include&#187;</text></g><!--link logout to auth--><g class="link" data-entity-1="logout" data-entity-2="auth" data-source-line="40" data-uid="lnk29" id="link_logout_auth"><path d="M279.79,551.21 C320.96,539.06 378.27,516.24 414,477 C458.79,427.82 489.3027,359.8592 502.2027,328.0892" fill="none" id="logout-to-auth" style="stroke:#181818;stroke-width:1;stroke-dasharray:7.0,7.0;"/><polygon fill="#181818" points="504.46,322.53,497.368,329.3639,502.5789,327.1627,504.7802,332.3737,504.46,322.53" style="stroke:#181818;stroke-width:1;"/><text fill="#000000" font-family="sans-serif" font-size="13" lengthAdjust="spacing" textLength="63.0068" x="350" y="473.0669">&#171;include&#187;</text></g><!--SRC=[TP91JiGm34NtEON5Pc31702XaH0IArWDi4KXDHsBJb8b3WD2R3a09q2iu1oz2IV1pPGqer4tNTW_t_xFRV21WHrugbSC5NaqJCugfGqx3pTC3GND63te03S1lL8pMBu4xhxN2AqdQwZLZMgrUTGrma7kNUlmUD6upG6yAe33Sz_ze8TemRXrotZK6tgiAR2OYk3MaOSr1k3kowmm9C4JuUQEnIdiUE0WIXhZKJPCgbvqvIfwe7qPLiHPj8ojxBxULrNOO65sljAs5bLWpP5tfgRENMgavSwOFTt7VKiT0jLs78rGTJ_6MIkiqIT9useNMRtrS0Ko62qVV9QsM7MVK7b7Z2FaiyWhj2mvZUxlDJ1UpdHk3CvzOUjxIMW3nEAYl-yV48TfGVN7XUFZnNYKN2cka6ibzLmS6UTI2NHyl0ClbqjIkJYmaGJNBWeg-KFoqY2_NnCbC3H5z2qJzPy3vlD5uW0dS7gQNbIuMAWnrPIYo3WboOcd14N-oJ4bZIbHmMPAiYKrqVq3]--></g></svg>