<svg xmlns="http://www.w3.org/2000/svg" xmlns:xlink="http://www.w3.org/1999/xlink" contentStyleType="text/css" data-diagram-type="SEQUENCE" height="442px" preserveAspectRatio="none" style="width:792px;height:442px;background:#FFFFFF;" version="1.1" viewBox="0 0 792 442" width="792px" zoomAndPan="magnify"><defs/><g><g><title>Utilisateur</title><rect fill="#000000" fill-opacity="0.00000" height="279.0625" width="8" x="45.0049" y="82.2969"/><line style="stroke:#000000;stroke-width:1;" x1="49" x2="49" y1="82.2969" y2="361.3594"/></g><g><title>Frontend React</title><rect fill="#000000" fill-opacity="0.00000" height="279.0625" width="8" x="248.3643" y="82.2969"/><line style="stroke:#000000;stroke-width:1;" x1="251.5313" x2="251.5313" y1="82.2969" y2="361.3594"/></g><g><title>Backend Laravel</title><rect fill="#000000" fill-opacity="0.00000" height="279.0625" width="8" x="491.3584" y="82.2969"/><line style="stroke:#000000;stroke-width:1;" x1="495.2017" x2="495.2017" y1="82.2969" y2="361.3594"/></g><g><title>Base de donn&#233;es</title><rect fill="#000000" fill-opacity="0.00000" height="279.0625" width="8" x="715.7412" y="82.2969"/><line style="stroke:#000000;stroke-width:1;" x1="719.6362" x2="719.6362" y1="82.2969" y2="361.3594"/></g><g class="participant participant-head" data-participant="User"><text fill="#000000" font-family="Verdana" font-size="14" lengthAdjust="spacing" textLength="72.0098" x="10" y="78.9951">Utilisateur</text><ellipse cx="49.0049" cy="14" fill="#FFFFFF" rx="8" ry="8" style="stroke:#000000;stroke-width:1;"/><path d="M49.0049,22 L49.0049,49 M36.0049,30 L62.0049,30 M49.0049,49 L36.0049,64 M49.0049,49 L62.0049,64" fill="none" style="stroke:#000000;stroke-width:1;"/></g><g class="participant participant-tail" data-participant="User"><text fill="#000000" font-family="Verdana" font-size="14" lengthAdjust="spacing" textLength="72.0098" x="10" y="373.3545">Utilisateur</text><ellipse cx="49.0049" cy="385.6563" fill="#FFFFFF" rx="8" ry="8" style="stroke:#000000;stroke-width:1;"/><path d="M49.0049,393.6563 L49.0049,420.6563 M36.0049,401.6563 L62.0049,401.6563 M49.0049,420.6563 L36.0049,435.6563 M49.0049,420.6563 L62.0049,435.6563" fill="none" style="stroke:#000000;stroke-width:1;"/></g><g class="participant participant-head" data-participant="Frontend"><rect fill="#FFFFFF" height="30.2969" rx="2.5" ry="2.5" style="stroke:#000000;stroke-width:1;" width="121.666" x="191.5313" y="51"/><text fill="#000000" font-family="Verdana" font-size="14" lengthAdjust="spacing" textLength="107.666" x="198.5313" y="70.9951">Frontend React</text></g><g class="participant participant-tail" data-participant="Frontend"><rect fill="#FFFFFF" height="30.2969" rx="2.5" ry="2.5" style="stroke:#000000;stroke-width:1;" width="121.666" x="191.5313" y="360.3594"/><text fill="#000000" font-family="Verdana" font-size="14" lengthAdjust="spacing" textLength="107.666" x="198.5313" y="380.3545">Frontend React</text></g><g class="participant participant-head" data-participant="Backend"><rect fill="#FFFFFF" height="30.2969" rx="2.5" ry="2.5" style="stroke:#000000;stroke-width:1;" width="130.3135" x="430.2017" y="51"/><text fill="#000000" font-family="Verdana" font-size="14" lengthAdjust="spacing" textLength="116.3135" x="437.2017" y="70.9951">Backend Laravel</text></g><g class="participant participant-tail" data-participant="Backend"><rect fill="#FFFFFF" height="30.2969" rx="2.5" ry="2.5" style="stroke:#000000;stroke-width:1;" width="130.3135" x="430.2017" y="360.3594"/><text fill="#000000" font-family="Verdana" font-size="14" lengthAdjust="spacing" textLength="116.3135" x="437.2017" y="380.3545">Backend Laravel</text></g><g class="participant participant-head" data-participant="DB"><rect fill="#FFFFFF" height="30.2969" rx="2.5" ry="2.5" style="stroke:#000000;stroke-width:1;" width="134.21" x="652.6362" y="51"/><text fill="#000000" font-family="Verdana" font-size="14" lengthAdjust="spacing" textLength="120.21" x="659.6362" y="70.9951">Base de donn&#233;es</text></g><g class="participant participant-tail" data-participant="DB"><rect fill="#FFFFFF" height="30.2969" rx="2.5" ry="2.5" style="stroke:#000000;stroke-width:1;" width="134.21" x="652.6362" y="360.3594"/><text fill="#000000" font-family="Verdana" font-size="14" lengthAdjust="spacing" textLength="120.21" x="659.6362" y="380.3545">Base de donn&#233;es</text></g><g class="message" data-participant-1="User" data-participant-2="Frontend"><polygon fill="#000000" points="240.3643,109.4297,250.3643,113.4297,240.3643,117.4297,244.3643,113.4297" style="stroke:#000000;stroke-width:1;"/><line style="stroke:#000000;stroke-width:1;" x1="49.0049" x2="246.3643" y1="113.4297" y2="113.4297"/><text fill="#000000" font-family="Verdana" font-size="13" lengthAdjust="spacing" textLength="115.4194" x="56.0049" y="108.3638">Saisie identifiants</text></g><g class="message" data-participant-1="Frontend" data-participant-2="Backend"><polygon fill="#000000" points="483.3584,138.5625,493.3584,142.5625,483.3584,146.5625,487.3584,142.5625" style="stroke:#000000;stroke-width:1;"/><line style="stroke:#000000;stroke-width:1;" x1="252.3643" x2="489.3584" y1="142.5625" y2="142.5625"/><text fill="#000000" font-family="Verdana" font-size="13" lengthAdjust="spacing" textLength="218.9941" x="259.3643" y="137.4966">POST /api/login (email, password)</text></g><g class="message" data-participant-1="Backend" data-participant-2="DB"><polygon fill="#000000" points="707.7412,167.6953,717.7412,171.6953,707.7412,175.6953,711.7412,171.6953" style="stroke:#000000;stroke-width:1;"/><line style="stroke:#000000;stroke-width:1;" x1="495.3584" x2="713.7412" y1="171.6953" y2="171.6953"/><text fill="#000000" font-family="Verdana" font-size="13" lengthAdjust="spacing" textLength="200.3828" x="502.3584" y="166.6294">V&#233;rification utilisateur existant</text></g><g class="message" data-participant-1="DB" data-participant-2="Backend"><polygon fill="#000000" points="506.3584,196.8281,496.3584,200.8281,506.3584,204.8281,502.3584,200.8281" style="stroke:#000000;stroke-width:1;"/><line style="stroke:#000000;stroke-width:1;stroke-dasharray:2.0,2.0;" x1="500.3584" x2="718.7412" y1="200.8281" y2="200.8281"/><text fill="#000000" font-family="Verdana" font-size="13" lengthAdjust="spacing" textLength="126.9341" x="512.3584" y="195.7622">Donn&#233;es utilisateur</text></g><g class="message" data-participant-1="Backend" data-participant-2="Backend"><line style="stroke:#000000;stroke-width:1;" x1="495.3584" x2="537.3584" y1="229.9609" y2="229.9609"/><line style="stroke:#000000;stroke-width:1;" x1="537.3584" x2="537.3584" y1="229.9609" y2="242.9609"/><line style="stroke:#000000;stroke-width:1;" x1="496.3584" x2="537.3584" y1="242.9609" y2="242.9609"/><polygon fill="#000000" points="506.3584,238.9609,496.3584,242.9609,506.3584,246.9609,502.3584,242.9609" style="stroke:#000000;stroke-width:1;"/><text fill="#000000" font-family="Verdana" font-size="13" lengthAdjust="spacing" textLength="175.208" x="502.3584" y="224.895">G&#233;n&#233;ration token Sanctum</text></g><g class="message" data-participant-1="Backend" data-participant-2="Frontend"><polygon fill="#000000" points="263.3643,268.0938,253.3643,272.0938,263.3643,276.0938,259.3643,272.0938" style="stroke:#000000;stroke-width:1;"/><line style="stroke:#000000;stroke-width:1;stroke-dasharray:2.0,2.0;" x1="257.3643" x2="494.3584" y1="272.0938" y2="272.0938"/><text fill="#000000" font-family="Verdana" font-size="13" lengthAdjust="spacing" textLength="171.2217" x="269.3643" y="267.0278">R&#233;ponse avec token (200)</text></g><g class="message" data-participant-1="Frontend" data-participant-2="Frontend"><line style="stroke:#000000;stroke-width:1;" x1="252.3643" x2="294.3643" y1="301.2266" y2="301.2266"/><line style="stroke:#000000;stroke-width:1;" x1="294.3643" x2="294.3643" y1="301.2266" y2="314.2266"/><line style="stroke:#000000;stroke-width:1;" x1="253.3643" x2="294.3643" y1="314.2266" y2="314.2266"/><polygon fill="#000000" points="263.3643,310.2266,253.3643,314.2266,263.3643,318.2266,259.3643,314.2266" style="stroke:#000000;stroke-width:1;"/><text fill="#000000" font-family="Verdana" font-size="13" lengthAdjust="spacing" textLength="177.563" x="259.3643" y="296.1606">Stockage token localement</text></g><g class="message" data-participant-1="Frontend" data-participant-2="User"><polygon fill="#000000" points="60.0049,339.3594,50.0049,343.3594,60.0049,347.3594,56.0049,343.3594" style="stroke:#000000;stroke-width:1;"/><line style="stroke:#000000;stroke-width:1;stroke-dasharray:2.0,2.0;" x1="54.0049" x2="251.3643" y1="343.3594" y2="343.3594"/><text fill="#000000" font-family="Verdana" font-size="13" lengthAdjust="spacing" textLength="179.3594" x="66.0049" y="338.2935">Redirection vers dashboard</text></g><!--SRC=[NP51Ri8m44NtFiMK5KX5e2wpw2AAsasbLb2wdzfJ667io1vehvHpv6ATq1129Qz6x__vytqdEpeGr1uv68DMOeADiEUCGiS4c66JAPaQax3b6eF0v2d581GSh4WLamwwZ6x14ks-urumuOdycUnd_y5CuFJ54Dg6yfciIcEwvJ1_7FmBM2Dd9c17GVYBLPxD44Z9th-0jzVrEoomveMFMmumfGEoluSQS_wEoStC9PwgghA0ZxP9wcXHE0OuZbgW7ywYcqnLmdoye-hpZkcnxG0-jus2wSzQeWxra63bUBZYDsUksgQEGLlHucolc3uibxEROqUrIBHxt5AF-cZHwyzgvYklWgvFDIV7YUmvp8bI1eTvznankLy0]--></g></svg>