<svg xmlns="http://www.w3.org/2000/svg" xmlns:xlink="http://www.w3.org/1999/xlink" contentStyleType="text/css" data-diagram-type="DESCRIPTION" height="337px" preserveAspectRatio="none" style="width:652px;height:337px;background:#FFFFFF;" version="1.1" viewBox="0 0 652 337" width="652px" zoomAndPan="magnify"><defs/><g><!--cluster Syst?me TaskFlow--><g class="cluster" data-entity="Syst&#232;me TaskFlow" data-source-line="6" data-uid="ent0003" id="cluster_Syst&#232;me TaskFlow"><path d="M160.5,6 L307.7412,6 A3.75,3.75 0 0 1 310.2412,8.5 L317.2412,28.2969 L382.5,28.2969 A2.5,2.5 0 0 1 385,30.7969 L385,327.5 A2.5,2.5 0 0 1 382.5,330 L160.5,330 A2.5,2.5 0 0 1 158,327.5 L158,8.5 A2.5,2.5 0 0 1 160.5,6" fill="none" style="stroke:#000000;stroke-width:1.5;"/><line style="stroke:#000000;stroke-width:1.5;" x1="158" x2="317.2412" y1="28.2969" y2="28.2969"/><text fill="#000000" font-family="sans-serif" font-size="14" font-weight="bold" lengthAdjust="spacing" textLength="146.2412" x="162" y="20.9951">Syst&#232;me TaskFlow</text></g><!--cluster Authentification--><g class="cluster" data-entity="Authentification" data-source-line="14" data-uid="ent0008" id="cluster_Authentification"><path d="M484.5,126 L613.626,126 A3.75,3.75 0 0 1 616.126,128.5 L623.126,148.2969 L642.5,148.2969 A2.5,2.5 0 0 1 645,150.7969 L645,206.5 A2.5,2.5 0 0 1 642.5,209 L484.5,209 A2.5,2.5 0 0 1 482,206.5 L482,128.5 A2.5,2.5 0 0 1 484.5,126" fill="none" style="stroke:#000000;stroke-width:1.5;"/><line style="stroke:#000000;stroke-width:1.5;" x1="482" x2="623.126" y1="148.2969" y2="148.2969"/><text fill="#000000" font-family="sans-serif" font-size="14" font-weight="bold" lengthAdjust="spacing" textLength="128.126" x="486" y="140.9951">Authentification</text></g><!--entity view_users--><g class="entity" data-entity="view_users" data-source-line="7" data-uid="ent0004" id="entity_view_users"><ellipse cx="271.3484" cy="62.7697" fill="#F1F1F1" rx="96.8484" ry="21.7697" style="stroke:#181818;stroke-width:0.5;"/><text fill="#000000" font-family="sans-serif" font-size="14" lengthAdjust="spacing" textLength="169.0869" x="186.8049" y="67.4181">Voir tous les utilisateurs</text></g><!--entity create_user--><g class="entity" data-entity="create_user" data-source-line="8" data-uid="ent0005" id="entity_create_user"><ellipse cx="271.6837" cy="138.8367" fill="#F1F1F1" rx="82.1837" ry="18.8367" style="stroke:#181818;stroke-width:0.5;"/><text fill="#000000" font-family="sans-serif" font-size="14" lengthAdjust="spacing" textLength="135.7959" x="203.7857" y="143.4852">Cr&#233;er un utilisateur</text></g><!--entity edit_user--><g class="entity" data-entity="edit_user" data-source-line="9" data-uid="ent0006" id="entity_edit_user"><ellipse cx="271.5661" cy="213.9132" fill="#F1F1F1" rx="90.0661" ry="20.4132" style="stroke:#181818;stroke-width:0.5;"/><text fill="#000000" font-family="sans-serif" font-size="14" lengthAdjust="spacing" textLength="153.8906" x="194.6208" y="218.5617">Modifier un utilisateur</text></g><!--entity delete_user--><g class="entity" data-entity="delete_user" data-source-line="10" data-uid="ent0007" id="entity_delete_user"><ellipse cx="271.4708" cy="291.8942" fill="#F1F1F1" rx="97.4708" ry="21.8942" style="stroke:#181818;stroke-width:0.5;"/><text fill="#000000" font-family="sans-serif" font-size="14" lengthAdjust="spacing" textLength="170.4678" x="186.237" y="296.5426">Supprimer un utilisateur</text></g><!--entity auth--><g class="entity" data-entity="auth" data-source-line="15" data-uid="ent0009" id="entity_auth"><ellipse cx="563.4286" cy="176.9857" fill="#F1F1F1" rx="65.4286" ry="15.4857" style="stroke:#181818;stroke-width:0.5;"/><text fill="#000000" font-family="sans-serif" font-size="14" lengthAdjust="spacing" textLength="94.6025" x="516.1274" y="181.6342">S'authentifier</text></g><!--entity Admin--><g class="entity" data-entity="Admin" data-source-line="3" data-uid="ent0002" id="entity_Admin"><ellipse cx="58.3018" cy="156.5" fill="#F1F1F1" rx="8" ry="8" style="stroke:#181818;stroke-width:0.5;"/><path d="M58.3018,164.5 L58.3018,191.5 M45.3018,172.5 L71.3018,172.5 M58.3018,191.5 L45.3018,206.5 M58.3018,191.5 L71.3018,206.5" fill="none" style="stroke:#181818;stroke-width:0.5;"/><text fill="#000000" font-family="sans-serif" font-size="14" lengthAdjust="spacing" textLength="104.6035" x="6" y="220.9951">Administrateur</text></g><!--link Admin to view_users--><g class="link" data-entity-1="Admin" data-entity-2="view_users" data-source-line="19" data-uid="lnk10" id="link_Admin_view_users"><path d="M93.53,147.7 C109.38,131.75 129.29,114.15 150,102 C166.5,92.32 179.9863,86.5412 198.1463,80.7212" fill="none" id="Admin-to-view_users" style="stroke:#181818;stroke-width:1;"/><polygon fill="#181818" points="203.86,78.89,194.0686,77.8276,199.0985,80.416,196.5102,85.4459,203.86,78.89" style="stroke:#181818;stroke-width:1;"/></g><!--link Admin to create_user--><g class="link" data-entity-1="Admin" data-entity-2="create_user" data-source-line="20" data-uid="lnk11" id="link_Admin_create_user"><path d="M111.12,174.5 C141.5,167.74 174.1634,160.4541 205.7334,153.4241" fill="none" id="Admin-to-create_user" style="stroke:#181818;stroke-width:1;"/><polygon fill="#181818" points="211.59,152.12,201.9357,150.1718,206.7095,153.2068,203.6746,157.9806,211.59,152.12" style="stroke:#181818;stroke-width:1;"/></g><!--link Admin to edit_user--><g class="link" data-entity-1="Admin" data-entity-2="edit_user" data-source-line="21" data-uid="lnk12" id="link_Admin_edit_user"><path d="M111.12,192.85 C135.88,196.14 160.1222,199.3501 187.5322,202.9901" fill="none" id="Admin-to-edit_user" style="stroke:#181818;stroke-width:1;"/><polygon fill="#181818" points="193.48,203.78,185.0849,198.63,188.5235,203.1218,184.0318,206.5604,193.48,203.78" style="stroke:#181818;stroke-width:1;"/></g><!--link Admin to delete_user--><g class="link" data-entity-1="Admin" data-entity-2="delete_user" data-source-line="22" data-uid="lnk13" id="link_Admin_delete_user"><path d="M106.08,224.19 C119.69,234.16 134.96,244.26 150,252 C168.03,261.28 182.9607,267.2149 201.9907,273.3649" fill="none" id="Admin-to-delete_user" style="stroke:#181818;stroke-width:1;"/><polygon fill="#181818" points="207.7,275.21,200.3662,268.6362,202.9423,273.6724,197.9061,276.2485,207.7,275.21" style="stroke:#181818;stroke-width:1;"/></g><!--link view_users to auth--><g class="link" data-entity-1="view_users" data-entity-2="auth" data-source-line="25" data-uid="lnk14" id="link_view_users_auth"><path d="M330.12,80.65 C350.14,87.05 372.67,94.54 393,102 C425.93,114.08 433.87,117.92 466,132 C488.86,142.02 509.0211,151.414 528.1011,160.484" fill="none" id="view_users-to-auth" style="stroke:#181818;stroke-width:1;stroke-dasharray:7.0,7.0;"/><polygon fill="#181818" points="533.52,163.06,527.109,155.5835,529.0043,160.9134,523.6743,162.8087,533.52,163.06" style="stroke:#181818;stroke-width:1;"/><text fill="#000000" font-family="sans-serif" font-size="13" lengthAdjust="spacing" textLength="63.0068" x="402" y="102.0669">&#171;include&#187;</text></g><!--link create_user to auth--><g class="link" data-entity-1="create_user" data-entity-2="auth" data-source-line="26" data-uid="lnk15" id="link_create_user_auth"><path d="M343.44,148.3 C393.41,154.84 453.4709,162.71 499.9209,168.8" fill="none" id="create_user-to-auth" style="stroke:#181818;stroke-width:1;stroke-dasharray:7.0,7.0;"/><polygon fill="#181818" points="505.87,169.58,497.4664,164.444,500.9124,168.93,496.4264,172.3761,505.87,169.58" style="stroke:#181818;stroke-width:1;"/><text fill="#000000" font-family="sans-serif" font-size="13" lengthAdjust="spacing" textLength="63.0068" x="402" y="153.0669">&#171;include&#187;</text></g><!--link edit_user to auth--><g class="link" data-entity-1="edit_user" data-entity-2="auth" data-source-line="27" data-uid="lnk16" id="link_edit_user_auth"><path d="M361.56,213.51 C394.54,212.25 432.14,209.54 466,204 C485.74,200.77 501.4802,196.7376 519.1502,191.3576" fill="none" id="edit_user-to-auth" style="stroke:#181818;stroke-width:1;stroke-dasharray:7.0,7.0;"/><polygon fill="#181818" points="524.89,189.61,515.1152,188.4049,520.1068,191.0663,517.4453,196.058,524.89,189.61" style="stroke:#181818;stroke-width:1;"/><text fill="#000000" font-family="sans-serif" font-size="13" lengthAdjust="spacing" textLength="63.0068" x="402" y="200.0669">&#171;include&#187;</text></g><!--link delete_user to auth--><g class="link" data-entity-1="delete_user" data-entity-2="auth" data-source-line="28" data-uid="lnk17" id="link_delete_user_auth"><path d="M343.11,276.96 C380.51,267.76 426.72,254.38 466,237 C493.96,224.63 518.5409,208.7039 537.4509,195.3339" fill="none" id="delete_user-to-auth" style="stroke:#181818;stroke-width:1;stroke-dasharray:7.0,7.0;"/><polygon fill="#181818" points="542.35,191.87,532.692,193.7997,538.2674,194.7566,537.3105,200.3319,542.35,191.87" style="stroke:#181818;stroke-width:1;"/><text fill="#000000" font-family="sans-serif" font-size="13" lengthAdjust="spacing" textLength="63.0068" x="402" y="233.0669">&#171;include&#187;</text></g><!--SRC=[TP4zJiCm5CTtd-AfIs5e3u2gI1KI4qmjhCYoNzkdkdPaFrCGOkK0d80Hpf6RS1Bif4qyD4iaF__o_Xysk65W1vwsEmPD7XMJiq98nSx3KX_8Kc0l6QC76Rg945DOlGLkVWu8jIUhg9P6r5BjvHPXqj-jPTZV6NUSmBi0k7fov9DQ360mG6Go5DhDuJhlVY4yFiU0FcJurZU_w27Q4cmvvJ4TMZA33qxJXYwZg8bxS1NhPFPmcTHeyBpq8mTy30XAfW- -CdgBq7o3zeuOXw3Bo3kqdEILpBsTSgwcih_0RdqUT7ll2MqwvnxXx_CBuaadYBPRcCsgiebXMCOUfaF2OLPcIOhhll6p5AGdCp4P15DOxJA8GHpcywfr3ZUmMBJ_QAmgKJWPGtfROq3XSGJv1m00]--></g></svg>