<svg xmlns="http://www.w3.org/2000/svg" xmlns:xlink="http://www.w3.org/1999/xlink" contentStyleType="text/css" data-diagram-type="SEQUENCE" height="588px" preserveAspectRatio="none" style="width:938px;height:588px;background:#FFFFFF;" version="1.1" viewBox="0 0 938 588" width="938px" zoomAndPan="magnify"><defs/><g><g><title>Administrateur</title><rect fill="#000000" fill-opacity="0.00000" height="424.7266" width="8" x="61.3018" y="82.2969"/><line style="stroke:#000000;stroke-width:1;" x1="65" x2="65" y1="82.2969" y2="507.0234"/></g><g><title>Frontend React</title><rect fill="#000000" fill-opacity="0.00000" height="424.7266" width="8" x="299.751" y="82.2969"/><line style="stroke:#000000;stroke-width:1;" x1="302.918" x2="302.918" y1="82.2969" y2="507.0234"/></g><g><title>Backend Laravel</title><rect fill="#000000" fill-opacity="0.00000" height="424.7266" width="8" x="631.4663" y="82.2969"/><line style="stroke:#000000;stroke-width:1;" x1="635.3096" x2="635.3096" y1="82.2969" y2="507.0234"/></g><g><title>Base de donn&#233;es</title><rect fill="#000000" fill-opacity="0.00000" height="424.7266" width="8" x="861.02" y="82.2969"/><line style="stroke:#000000;stroke-width:1;" x1="864.915" x2="864.915" y1="82.2969" y2="507.0234"/></g><g class="participant participant-head" data-participant="Admin"><text fill="#000000" font-family="Verdana" font-size="14" lengthAdjust="spacing" textLength="104.6035" x="10" y="78.9951">Administrateur</text><ellipse cx="65.3018" cy="14" fill="#FFFFFF" rx="8" ry="8" style="stroke:#000000;stroke-width:1;"/><path d="M65.3018,22 L65.3018,49 M52.3018,30 L78.3018,30 M65.3018,49 L52.3018,64 M65.3018,49 L78.3018,64" fill="none" style="stroke:#000000;stroke-width:1;"/></g><g class="participant participant-tail" data-participant="Admin"><text fill="#000000" font-family="Verdana" font-size="14" lengthAdjust="spacing" textLength="104.6035" x="10" y="519.0186">Administrateur</text><ellipse cx="65.3018" cy="531.3203" fill="#FFFFFF" rx="8" ry="8" style="stroke:#000000;stroke-width:1;"/><path d="M65.3018,539.3203 L65.3018,566.3203 M52.3018,547.3203 L78.3018,547.3203 M65.3018,566.3203 L52.3018,581.3203 M65.3018,566.3203 L78.3018,581.3203" fill="none" style="stroke:#000000;stroke-width:1;"/></g><g class="participant participant-head" data-participant="Frontend"><rect fill="#FFFFFF" height="30.2969" rx="2.5" ry="2.5" style="stroke:#000000;stroke-width:1;" width="121.666" x="242.918" y="51"/><text fill="#000000" font-family="Verdana" font-size="14" lengthAdjust="spacing" textLength="107.666" x="249.918" y="70.9951">Frontend React</text></g><g class="participant participant-tail" data-participant="Frontend"><rect fill="#FFFFFF" height="30.2969" rx="2.5" ry="2.5" style="stroke:#000000;stroke-width:1;" width="121.666" x="242.918" y="506.0234"/><text fill="#000000" font-family="Verdana" font-size="14" lengthAdjust="spacing" textLength="107.666" x="249.918" y="526.0186">Frontend React</text></g><g class="participant participant-head" data-participant="Backend"><rect fill="#FFFFFF" height="30.2969" rx="2.5" ry="2.5" style="stroke:#000000;stroke-width:1;" width="130.3135" x="570.3096" y="51"/><text fill="#000000" font-family="Verdana" font-size="14" lengthAdjust="spacing" textLength="116.3135" x="577.3096" y="70.9951">Backend Laravel</text></g><g class="participant participant-tail" data-participant="Backend"><rect fill="#FFFFFF" height="30.2969" rx="2.5" ry="2.5" style="stroke:#000000;stroke-width:1;" width="130.3135" x="570.3096" y="506.0234"/><text fill="#000000" font-family="Verdana" font-size="14" lengthAdjust="spacing" textLength="116.3135" x="577.3096" y="526.0186">Backend Laravel</text></g><g class="participant participant-head" data-participant="DB"><rect fill="#FFFFFF" height="30.2969" rx="2.5" ry="2.5" style="stroke:#000000;stroke-width:1;" width="134.21" x="797.915" y="51"/><text fill="#000000" font-family="Verdana" font-size="14" lengthAdjust="spacing" textLength="120.21" x="804.915" y="70.9951">Base de donn&#233;es</text></g><g class="participant participant-tail" data-participant="DB"><rect fill="#FFFFFF" height="30.2969" rx="2.5" ry="2.5" style="stroke:#000000;stroke-width:1;" width="134.21" x="797.915" y="506.0234"/><text fill="#000000" font-family="Verdana" font-size="14" lengthAdjust="spacing" textLength="120.21" x="804.915" y="526.0186">Base de donn&#233;es</text></g><g class="message" data-participant-1="Admin" data-participant-2="Frontend"><polygon fill="#000000" points="291.751,109.4297,301.751,113.4297,291.751,117.4297,295.751,113.4297" style="stroke:#000000;stroke-width:1;"/><line style="stroke:#000000;stroke-width:1;" x1="65.3018" x2="297.751" y1="113.4297" y2="113.4297"/><text fill="#000000" font-family="Verdana" font-size="13" lengthAdjust="spacing" textLength="203.1123" x="72.3018" y="108.3638">Acc&#232;s page gestion utilisateurs</text></g><g class="message" data-participant-1="Frontend" data-participant-2="Backend"><polygon fill="#000000" points="623.4663,138.5625,633.4663,142.5625,623.4663,146.5625,627.4663,142.5625" style="stroke:#000000;stroke-width:1;"/><line style="stroke:#000000;stroke-width:1;" x1="303.751" x2="629.4663" y1="142.5625" y2="142.5625"/><text fill="#000000" font-family="Verdana" font-size="13" lengthAdjust="spacing" textLength="270.0864" x="310.751" y="137.4966">GET /api/admin/users (avec token admin)</text></g><g class="message" data-participant-1="Backend" data-participant-2="Backend"><line style="stroke:#000000;stroke-width:1;" x1="635.4663" x2="677.4663" y1="171.6953" y2="171.6953"/><line style="stroke:#000000;stroke-width:1;" x1="677.4663" x2="677.4663" y1="171.6953" y2="184.6953"/><line style="stroke:#000000;stroke-width:1;" x1="636.4663" x2="677.4663" y1="184.6953" y2="184.6953"/><polygon fill="#000000" points="646.4663,180.6953,636.4663,184.6953,646.4663,188.6953,642.4663,184.6953" style="stroke:#000000;stroke-width:1;"/><text fill="#000000" font-family="Verdana" font-size="13" lengthAdjust="spacing" textLength="215.5537" x="642.4663" y="166.6294">V&#233;rification droits administrateur</text></g><g class="message" data-participant-1="Backend" data-participant-2="DB"><polygon fill="#000000" points="853.02,209.8281,863.02,213.8281,853.02,217.8281,857.02,213.8281" style="stroke:#000000;stroke-width:1;"/><line style="stroke:#000000;stroke-width:1;" x1="635.4663" x2="859.02" y1="213.8281" y2="213.8281"/><text fill="#000000" font-family="Verdana" font-size="13" lengthAdjust="spacing" textLength="194.6001" x="642.4663" y="208.7622">R&#233;cup&#233;ration liste utilisateurs</text></g><g class="message" data-participant-1="DB" data-participant-2="Backend"><polygon fill="#000000" points="646.4663,238.9609,636.4663,242.9609,646.4663,246.9609,642.4663,242.9609" style="stroke:#000000;stroke-width:1;"/><line style="stroke:#000000;stroke-width:1;stroke-dasharray:2.0,2.0;" x1="640.4663" x2="864.02" y1="242.9609" y2="242.9609"/><text fill="#000000" font-family="Verdana" font-size="13" lengthAdjust="spacing" textLength="134.3735" x="652.4663" y="237.895">Liste des utilisateurs</text></g><g class="message" data-participant-1="Backend" data-participant-2="Frontend"><polygon fill="#000000" points="314.751,268.0938,304.751,272.0938,314.751,276.0938,310.751,272.0938" style="stroke:#000000;stroke-width:1;"/><line style="stroke:#000000;stroke-width:1;stroke-dasharray:2.0,2.0;" x1="308.751" x2="634.4663" y1="272.0938" y2="272.0938"/><text fill="#000000" font-family="Verdana" font-size="13" lengthAdjust="spacing" textLength="266.354" x="320.751" y="267.0278">R&#233;ponse avec donn&#233;es utilisateurs (200)</text></g><g class="message" data-participant-1="Frontend" data-participant-2="Frontend"><line style="stroke:#000000;stroke-width:1;" x1="303.751" x2="345.751" y1="301.2266" y2="301.2266"/><line style="stroke:#000000;stroke-width:1;" x1="345.751" x2="345.751" y1="301.2266" y2="314.2266"/><line style="stroke:#000000;stroke-width:1;" x1="304.751" x2="345.751" y1="314.2266" y2="314.2266"/><polygon fill="#000000" points="314.751,310.2266,304.751,314.2266,314.751,318.2266,310.751,314.2266" style="stroke:#000000;stroke-width:1;"/><text fill="#000000" font-family="Verdana" font-size="13" lengthAdjust="spacing" textLength="168.981" x="310.751" y="296.1606">Affichage liste utilisateurs</text></g><g class="message" data-participant-1="Admin" data-participant-2="Frontend"><polygon fill="#000000" points="291.751,339.3594,301.751,343.3594,291.751,347.3594,295.751,343.3594" style="stroke:#000000;stroke-width:1;"/><line style="stroke:#000000;stroke-width:1;" x1="65.3018" x2="297.751" y1="343.3594" y2="343.3594"/><text fill="#000000" font-family="Verdana" font-size="13" lengthAdjust="spacing" textLength="214.4492" x="72.3018" y="338.2935">S&#233;lection modification utilisateur</text></g><g class="message" data-participant-1="Frontend" data-participant-2="Backend"><polygon fill="#000000" points="623.4663,368.4922,633.4663,372.4922,623.4663,376.4922,627.4663,372.4922" style="stroke:#000000;stroke-width:1;"/><line style="stroke:#000000;stroke-width:1;" x1="303.751" x2="629.4663" y1="372.4922" y2="372.4922"/><text fill="#000000" font-family="Verdana" font-size="13" lengthAdjust="spacing" textLength="307.7153" x="310.751" y="367.4263">PUT /api/admin/users/{id} (avec modifications)</text></g><g class="message" data-participant-1="Backend" data-participant-2="DB"><polygon fill="#000000" points="853.02,397.625,863.02,401.625,853.02,405.625,857.02,401.625" style="stroke:#000000;stroke-width:1;"/><line style="stroke:#000000;stroke-width:1;" x1="635.4663" x2="859.02" y1="401.625" y2="401.625"/><text fill="#000000" font-family="Verdana" font-size="13" lengthAdjust="spacing" textLength="140.7021" x="642.4663" y="396.5591">Mise &#224; jour utilisateur</text></g><g class="message" data-participant-1="DB" data-participant-2="Backend"><polygon fill="#000000" points="646.4663,426.7578,636.4663,430.7578,646.4663,434.7578,642.4663,430.7578" style="stroke:#000000;stroke-width:1;"/><line style="stroke:#000000;stroke-width:1;stroke-dasharray:2.0,2.0;" x1="640.4663" x2="864.02" y1="430.7578" y2="430.7578"/><text fill="#000000" font-family="Verdana" font-size="13" lengthAdjust="spacing" textLength="160.894" x="652.4663" y="425.6919">Confirmation mise &#224; jour</text></g><g class="message" data-participant-1="Backend" data-participant-2="Frontend"><polygon fill="#000000" points="314.751,455.8906,304.751,459.8906,314.751,463.8906,310.751,459.8906" style="stroke:#000000;stroke-width:1;"/><line style="stroke:#000000;stroke-width:1;stroke-dasharray:2.0,2.0;" x1="308.751" x2="634.4663" y1="459.8906" y2="459.8906"/><text fill="#000000" font-family="Verdana" font-size="13" lengthAdjust="spacing" textLength="143.5459" x="320.751" y="454.8247">R&#233;ponse succ&#232;s (200)</text></g><g class="message" data-participant-1="Frontend" data-participant-2="Admin"><polygon fill="#000000" points="76.3018,485.0234,66.3018,489.0234,76.3018,493.0234,72.3018,489.0234" style="stroke:#000000;stroke-width:1;"/><line style="stroke:#000000;stroke-width:1;stroke-dasharray:2.0,2.0;" x1="70.3018" x2="302.751" y1="489.0234" y2="489.0234"/><text fill="#000000" font-family="Verdana" font-size="13" lengthAdjust="spacing" textLength="210.2788" x="82.3018" y="483.9575">Notification modification r&#233;ussie</text></g><!--SRC=[XP9DJiCm48NtESNGLRkeKh7C0gcXmAOWL7xsbZDj1n8xyZXi47TXISwHY-4uRUg4IaXUZTwRUU-JB-mU2uGo5wIYI4Yh3IopWXInDS9YPK1mDubAOIn9AeMoCBarMbbK6MpGkIQjwZWQ2bCXtrlTMXZnWRbN7cPZ8IDaxccbcXhPArTf5FdhCB_g3oImbBBvOIZ53c67R4ahg2pbn3upHtqyPpjSI-3kvXbYKL8isernnMWOfYwL1AkT1Fny5XqZXzxNfZQq9IdyhSneijpfUrAXRvKci6bgMPNErtbSE8l3bAiKvk6HjPTao4DPltV0mAqljNBCV84ZjO4JffUBnMm08s2uTNNsBS4poSv1Vshg7ANlKkZi12CmdkV- -FANU_n9sTS1VhYDPsECz-GwDj_mfjrd36-DwLrhjILJTA6AmFKVGAwwxpIcvTGUGm8Fsfxw3igRfgwO2Ny1]--></g></svg>